<?xml version="1.0" encoding="utf-8"?>
<!-- Generator: Adobe Illustrator 21.0.2, SVG Export Plug-In . SVG Version: 6.00 Build 0)  -->
<svg version="1.1" id="Layer_1" xmlns="http://www.w3.org/2000/svg" xmlns:xlink="http://www.w3.org/1999/xlink" x="0px" y="0px"
	 viewBox="0 0 360.9 63.8" style="enable-background:new 0 0 360.9 63.8;" xml:space="preserve">
<style type="text/css">
	.st0{fill:#0F9BD7;}
	.st1{fill-rule:evenodd;clip-rule:evenodd;fill:#0F9BD7;}
</style>
<g>
	<path class="st0" d="M0.1,44.8c-0.2,0.6,0.1,0.7,0.2,0.8c0.7,0.5,1.4,0.9,2.1,1.3c3.7,2,7.2,2.5,10.9,2.5c7.5,0,12.1-4,12.1-10.4
		V39c0-5.9-5.2-8.1-10.1-9.6l-0.6-0.2c-3.7-1.2-6.9-2.2-6.9-4.7v-0.1c0-2.1,1.9-3.6,4.8-3.6c3.2,0,7,1.1,9.5,2.4c0,0,0.7,0.5,1-0.2
		c0.1-0.4,1.4-3.7,1.5-4.1c0.1-0.4-0.1-0.7-0.4-0.8c-2.8-1.7-6.7-2.9-10.7-2.9l-0.7,0C5.7,15.1,1,19.3,1,25.2v0.1
		c0,6.2,5.3,8.3,10.2,9.7l0.8,0.2c3.6,1.1,6.7,2.1,6.7,4.6v0.1c0,2.3-2,4-5.3,4c-1.3,0-5.3,0-9.6-2.8c-0.5-0.3-0.8-0.5-1.2-0.8
		c-0.2-0.1-0.7-0.4-1,0.3L0.1,44.8z"/>
	<path class="st0" d="M109.3,44.8c-0.2,0.6,0.1,0.7,0.2,0.8c0.7,0.5,1.4,0.9,2.1,1.3c3.7,2,7.2,2.5,10.9,2.5c7.5,0,12.1-4,12.1-10.4
		V39c0-5.9-5.2-8.1-10.1-9.6l-0.6-0.2c-3.7-1.2-6.9-2.2-6.9-4.7v-0.1c0-2.1,1.9-3.6,4.8-3.6c3.2,0,7,1.1,9.5,2.4c0,0,0.7,0.5,1-0.2
		c0.1-0.4,1.4-3.7,1.5-4.1c0.1-0.4-0.1-0.7-0.4-0.8c-2.8-1.7-6.7-2.9-10.7-2.9l-0.7,0c-6.8,0-11.6,4.1-11.6,10v0.1
		c0,6.2,5.3,8.3,10.2,9.7l0.8,0.2c3.6,1.1,6.7,2.1,6.7,4.6v0.1c0,2.3-2,4-5.3,4c-1.3,0-5.3,0-9.6-2.8c-0.5-0.3-0.8-0.5-1.2-0.8
		c-0.1-0.1-0.8-0.3-1,0.3L109.3,44.8z"/>
	<path class="st0" d="M190.2,25.6c-0.6-2.1-1.6-3.9-2.8-5.4c-1.3-1.5-2.9-2.7-4.8-3.6c-1.9-0.9-4.1-1.3-6.7-1.3
		c-2.5,0-4.8,0.5-6.7,1.3c-1.9,0.9-3.5,2.1-4.8,3.6c-1.3,1.5-2.2,3.3-2.8,5.4c-0.6,2.1-0.9,4.3-0.9,6.7c0,2.4,0.3,4.6,0.9,6.7
		c0.6,2.1,1.6,3.9,2.8,5.4c1.3,1.5,2.9,2.7,4.8,3.6s4.1,1.3,6.7,1.3c2.5,0,4.8-0.4,6.7-1.3c1.9-0.9,3.5-2.1,4.8-3.6
		c1.3-1.5,2.2-3.3,2.8-5.4c0.6-2.1,0.9-4.3,0.9-6.7C191.1,29.9,190.8,27.7,190.2,25.6 M183.9,32.3c0,3.6-0.7,6.5-2,8.5
		c-1.3,2-3.3,3-6.1,3c-2.8,0-4.7-1-6-3c-1.3-2-2-4.9-2-8.5c0-3.6,0.7-6.4,2-8.4c1.3-2,3.3-2.9,6-2.9c2.8,0,4.7,1,6.1,2.9
		C183.3,25.9,183.9,28.7,183.9,32.3"/>
	<path class="st1" d="M241.3,42.8c-0.2-0.6-0.8-0.4-0.8-0.4c-0.9,0.3-1.9,0.7-2.9,0.8c-1,0.2-2.2,0.2-3.4,0.2c-3,0-5.4-0.9-7.1-2.7
		c-1.7-1.8-2.7-4.6-2.7-8.5c0-3.5,0.9-6.2,2.4-8.2c1.5-2,3.8-3,6.9-3c2.6,0,4.5,0.3,6.6,0.9c0,0,0.5,0.2,0.7-0.4
		c0.6-1.5,1-2.6,1.5-4.3c0.2-0.5-0.2-0.7-0.4-0.7c-0.8-0.3-2.7-0.8-4.2-1.1c-1.3-0.2-2.9-0.3-4.7-0.3c-2.6,0-4.9,0.4-6.9,1.3
		c-2,0.9-3.7,2.1-5,3.6c-1.3,1.5-2.4,3.3-3,5.4c-0.7,2.1-1,4.3-1,6.7c0,5.2,1.4,9.3,4.1,12.4c2.8,3.1,6.9,4.6,12.3,4.6
		c3.2,0,6.5-0.6,8.8-1.6c0,0,0.4-0.2,0.3-0.7L241.3,42.8z"/>
	<path class="st1" d="M273.2,24.4c-0.5-2-1.8-4-2.7-4.9c-1.4-1.5-2.7-2.5-4-3.1c-1.7-0.7-3.8-1.2-6-1.2c-2.6,0-5,0.4-7,1.4
		c-1.9,0.9-3.6,2.2-4.9,3.7c-1.3,1.5-2.2,3.4-2.9,5.5c-0.6,2.1-0.9,4.3-0.9,6.7c0,2.4,0.3,4.7,1,6.7c0.6,2.1,1.7,3.9,3.1,5.4
		c1.4,1.5,3.2,2.7,5.3,3.5c2.1,0.8,4.7,1.2,7.7,1.2c6.1,0,9.3-1.4,10.6-2.1c0.2-0.1,0.5-0.4,0.2-1l-1.4-3.9
		c-0.2-0.6-0.8-0.4-0.8-0.4c-1.5,0.6-3.7,1.6-8.7,1.6c-3.3,0-5.7-1-7.2-2.5c-1.6-1.5-2.3-3.8-2.5-7l21.1,0c0,0,0.6,0,0.6-0.6
		C273.8,33.3,274.5,29.2,273.2,24.4 M252.2,28.9c0.3-2,0.9-3.7,1.7-5c1.3-2,3.3-3.1,6-3.1c2.8,0,4.6,1.1,5.9,3.1
		c0.9,1.3,1.3,3,1.4,5L252.2,28.9z"/>
	<path class="st1" d="M104.3,24.4c-0.5-2-1.8-4-2.7-4.9c-1.4-1.5-2.7-2.5-4-3.1c-1.7-0.7-3.8-1.2-6-1.2c-2.6,0-5,0.4-7,1.4
		c-1.9,0.9-3.6,2.2-4.9,3.7c-1.3,1.5-2.2,3.4-2.9,5.5c-0.6,2.1-0.9,4.3-0.9,6.7c0,2.4,0.3,4.7,1,6.7c0.6,2.1,1.7,3.9,3.1,5.4
		c1.4,1.5,3.2,2.7,5.3,3.5c2.1,0.8,4.7,1.2,7.7,1.2c6.1,0,9.3-1.4,10.6-2.1c0.2-0.1,0.5-0.4,0.2-1l-1.4-3.9
		c-0.2-0.6-0.8-0.4-0.8-0.4c-1.5,0.6-3.7,1.6-8.7,1.6c-3.3,0-5.7-1-7.2-2.5c-1.6-1.5-2.3-3.8-2.5-7l21.1,0c0,0,0.6,0,0.6-0.6
		C104.9,33.3,105.6,29.2,104.3,24.4 M83.3,28.9c0.3-2,0.9-3.7,1.7-5c1.3-2,3.3-3.1,6-3.1c2.8,0,4.6,1.1,5.9,3.1c0.9,1.3,1.2,3,1.4,5
		L83.3,28.9z"/>
	<path class="st0" d="M46.1,27.8c-0.9-0.1-2-0.1-3.3-0.1c-1.8,0-3.6,0.2-5.2,0.7c-1.6,0.4-3.1,1.1-4.4,2c-1.3,0.9-2.3,2.1-3.1,3.5
		c-0.7,1.4-1.1,3-1.1,4.9c0,1.9,0.3,3.5,1,4.8c0.6,1.3,1.6,2.4,2.7,3.3c1.2,0.9,2.6,1.5,4.3,1.9c1.7,0.4,3.5,0.6,5.6,0.6
		c2.2,0,4.3-0.2,6.4-0.5c2.1-0.4,4.6-0.9,5.3-1c0.7-0.2,1.5-0.4,1.5-0.4c0.5-0.1,0.5-0.7,0.5-0.7l0-19.3c0-4.2-1.1-7.4-3.3-9.3
		c-2.2-1.9-5.5-2.9-9.7-2.9c-1.6,0-4.1,0.2-5.7,0.5c0,0-4.6,0.9-6.5,2.4c0,0-0.4,0.3-0.2,0.8l1.5,4c0.2,0.5,0.7,0.3,0.7,0.3
		s0.2-0.1,0.3-0.2c4.1-2.2,9.2-2.1,9.2-2.1c2.3,0,4,0.5,5.2,1.4c1.1,0.9,1.7,2.2,1.7,5v0.9C47.8,28,46.1,27.8,46.1,27.8 M37.7,42.7
		c-0.8-0.7-0.9-0.8-1.2-1.3c-0.4-0.6-0.6-1.6-0.6-2.7c0-1.9,0.6-3.2,1.9-4.1c0,0,1.8-1.6,6.1-1.5c3,0,5.7,0.5,5.7,0.5v9.6
		c0,0-2.7,0.6-5.7,0.8C39.6,44.2,37.7,42.7,37.7,42.7"/>
	<path class="st1" d="M216.2,17c0.2-0.5-0.2-0.7-0.3-0.8c-0.4-0.1-2.2-0.5-3.5-0.6c-2.7-0.2-4.1,0.3-5.4,0.9
		c-1.3,0.6-2.8,1.5-3.6,2.6l0-2.6c0-0.4-0.3-0.6-0.6-0.6h-5.4c-0.4,0-0.6,0.3-0.6,0.6V48c0,0.4,0.3,0.6,0.6,0.6h5.5
		c0.4,0,0.6-0.3,0.6-0.6V32.3c0-2.1,0.2-4.2,0.7-5.5c0.5-1.3,1.1-2.4,1.8-3.1c0.8-0.7,1.6-1.3,2.6-1.6c1-0.3,2.1-0.4,2.8-0.4
		c1.1,0,2.3,0.3,2.3,0.3c0.4,0,0.6-0.2,0.8-0.6C215,20.4,216,17.6,216.2,17"/>
	<path class="st1" d="M164.2,2.4c-0.7-0.2-1.3-0.3-2.1-0.5c-0.8-0.1-1.8-0.2-2.9-0.2c-3.8,0-6.8,1.1-8.9,3.2
		c-2.1,2.1-3.5,5.3-4.2,9.6l-0.3,1.4h-4.8c0,0-0.6,0-0.7,0.6l-0.8,4.4c-0.1,0.4,0.1,0.7,0.7,0.7h4.7L140.2,48
		c-0.4,2.1-0.8,3.9-1.3,5.2c-0.5,1.3-0.9,2.3-1.5,3c-0.5,0.7-1,1.2-1.9,1.5c-0.7,0.2-1.6,0.4-2.5,0.4c-0.5,0-1.2-0.1-1.7-0.2
		c-0.5-0.1-0.8-0.2-1.1-0.4c0,0-0.5-0.2-0.8,0.3c-0.2,0.4-1.4,3.9-1.6,4.3c-0.1,0.4,0.1,0.7,0.3,0.8c0.6,0.2,1.1,0.4,1.9,0.6
		c1.2,0.3,2.2,0.3,3.1,0.3c1.9,0,3.7-0.3,5.2-0.8c1.5-0.5,2.8-1.5,3.9-2.7c1.2-1.4,2-2.8,2.7-4.7c0.7-1.9,1.4-4.3,1.9-7.1l4.7-26.9
		h6.9c0,0,0.6,0,0.7-0.6l0.8-4.4c0.1-0.4-0.1-0.7-0.7-0.7h-6.7c0-0.1,0.3-2.5,1.1-4.8c0.3-1,1-1.7,1.5-2.3c0.5-0.5,1.1-0.9,1.8-1.1
		c0.7-0.2,1.4-0.3,2.3-0.3c0.6,0,1.3,0.1,1.7,0.2c0.7,0.1,0.9,0.2,1.1,0.3c0.7,0.2,0.8,0,0.9-0.3l1.6-4.4
		C164.8,2.7,164.4,2.5,164.2,2.4"/>
	<path class="st1" d="M70,48c0,0.4-0.3,0.6-0.6,0.6h-5.6c-0.4,0-0.6-0.3-0.6-0.6V3c0-0.4,0.3-0.6,0.6-0.6h5.6C69.8,2.4,70,2.6,70,3
		V48z"/>
	<g>
		<path class="st0" d="M288.2,48.9c-1,0-1.9-0.4-2.6-1.1s-1.1-1.6-1.1-2.6c0-1,0.4-1.9,1.1-2.6s1.6-1.1,2.6-1.1c1,0,1.9,0.4,2.6,1.1
			c0.7,0.7,1.1,1.6,1.1,2.6c0,1-0.4,1.9-1.1,2.6C290,48.5,289.2,48.9,288.2,48.9z"/>
		<path class="st0" d="M313,47.4c-3,0-5.7-0.6-8.1-1.8c-0.6,0.9-1.4,1.4-2.3,1.4c-0.7,0-1.4-0.3-1.9-0.8c-0.5-0.5-0.8-1.2-0.8-1.9
			c0-0.5,0-1.3,0.1-2.3c0-1,0.1-1.7,0.1-2.3c0-2.1-0.1-5.2-0.2-9.3c-0.1-4.1-0.2-7.2-0.2-9.3c0-1.4,0-4.1,0-8.1c0-4,0-6.7,0-8.1
			c0-1.2,0.2-2.2,0.7-3.2c0.6-1.2,1.5-1.8,2.7-1.8c1.5,0,2.2,0.8,2.2,2.5c0,0.3,0,0.7-0.1,1.2c-0.1,0.5-0.1,0.9-0.1,1.2l-0.1,6.4
			l-0.1,7.5c1.7-1.2,3.3-2,4.8-2.6c1.5-0.6,3-0.9,4.3-0.9c4.2,0,7.6,1.6,10.2,4.8c2.5,3,3.7,6.7,3.7,11.2c0,4.5-1.4,8.2-4.3,11.3
			S317.3,47.4,313,47.4z M314.1,20.9c-1.6,0-3.2,0.4-4.9,1.3c-0.8,0.4-2.2,1.4-4.2,2.9l-0.1,5.1l0,4.6l0,4.8c0.9,0.4,2.3,1,4,1.6
			c1.2,0.4,2.6,0.6,4.1,0.6c2.8,0,5.2-1,7-3s2.7-4.5,2.7-7.4c0-2.9-0.7-5.3-2.2-7.3C319,22,316.8,20.9,314.1,20.9z"/>
		<path class="st0" d="M360.5,20l-10.1,21.9c-2.5,5.3-4.4,9.8-5.7,13.4l-1.9,5.7c-0.5,1.4-1.4,2.1-2.6,2.1c-0.8,0-1.5-0.3-2.1-0.8
			s-0.9-1.2-0.9-2c0-2,2.1-7.6,6.3-17l-10.5-20.2l-1.3-2.1c-0.5-0.9-0.8-1.7-0.8-2.3c0-0.8,0.3-1.5,0.9-2.1s1.3-0.9,2.1-0.9
			c0.9,0,1.6,0.3,2.1,1c3.3,4.6,6.9,11.2,10.7,19.7l4.3-10.1c1.6-3.5,3.1-6.5,4.5-9c0.6-1.1,1.4-1.6,2.5-1.6c0.8,0,1.5,0.3,2.1,0.8
			s0.9,1.2,0.9,2C360.9,19,360.8,19.5,360.5,20z"/>
	</g>
</g>
</svg>
